<mxfile>
    <diagram id="JPwHdw99KFIFH9jynpwa" name="UI">
        <mxGraphModel dx="1118" dy="790" grid="1" gridSize="10" guides="1" tooltips="1" connect="1" arrows="1" fold="1" page="1" pageScale="1" pageWidth="827" pageHeight="1169" math="0" shadow="0">
            <root>
                <mxCell id="0"/>
                <mxCell id="1" parent="0"/>
                <mxCell id="YHTE3Ox_aLQOzrF9MliQ-42" value="" style="rounded=0;whiteSpace=wrap;html=1;fillColor=none;" parent="1" vertex="1">
                    <mxGeometry x="380" y="30" width="240" height="60" as="geometry"/>
                </mxCell>
                <mxCell id="YHTE3Ox_aLQOzrF9MliQ-2" value="" style="ellipse;whiteSpace=wrap;html=1;aspect=fixed;" parent="1" vertex="1">
                    <mxGeometry x="450" y="40" width="40" height="40" as="geometry"/>
                </mxCell>
                <mxCell id="YHTE3Ox_aLQOzrF9MliQ-5" value="" style="ellipse;whiteSpace=wrap;html=1;aspect=fixed;" parent="1" vertex="1">
                    <mxGeometry x="390" y="40" width="40" height="40" as="geometry"/>
                </mxCell>
                <mxCell id="YHTE3Ox_aLQOzrF9MliQ-41" value="" style="ellipse;whiteSpace=wrap;html=1;aspect=fixed;" parent="1" vertex="1">
                    <mxGeometry x="510" y="40" width="40" height="40" as="geometry"/>
                </mxCell>
                <mxCell id="YHTE3Ox_aLQOzrF9MliQ-43" value="" style="ellipse;whiteSpace=wrap;html=1;aspect=fixed;" parent="1" vertex="1">
                    <mxGeometry x="570" y="40" width="40" height="40" as="geometry"/>
                </mxCell>
                <mxCell id="YHTE3Ox_aLQOzrF9MliQ-44" value="" style="rounded=0;whiteSpace=wrap;html=1;fillColor=none;" parent="1" vertex="1">
                    <mxGeometry x="380" y="90" width="240" height="60" as="geometry"/>
                </mxCell>
                <mxCell id="YHTE3Ox_aLQOzrF9MliQ-45" value="" style="ellipse;whiteSpace=wrap;html=1;aspect=fixed;" parent="1" vertex="1">
                    <mxGeometry x="450" y="100" width="40" height="40" as="geometry"/>
                </mxCell>
                <mxCell id="YHTE3Ox_aLQOzrF9MliQ-46" value="" style="ellipse;whiteSpace=wrap;html=1;aspect=fixed;" parent="1" vertex="1">
                    <mxGeometry x="390" y="100" width="40" height="40" as="geometry"/>
                </mxCell>
                <mxCell id="YHTE3Ox_aLQOzrF9MliQ-47" value="" style="ellipse;whiteSpace=wrap;html=1;aspect=fixed;" parent="1" vertex="1">
                    <mxGeometry x="510" y="100" width="40" height="40" as="geometry"/>
                </mxCell>
                <mxCell id="YHTE3Ox_aLQOzrF9MliQ-48" value="" style="ellipse;whiteSpace=wrap;html=1;aspect=fixed;" parent="1" vertex="1">
                    <mxGeometry x="570" y="100" width="40" height="40" as="geometry"/>
                </mxCell>
                <mxCell id="YHTE3Ox_aLQOzrF9MliQ-49" value="" style="rounded=0;whiteSpace=wrap;html=1;fillColor=none;" parent="1" vertex="1">
                    <mxGeometry x="380" y="150" width="240" height="60" as="geometry"/>
                </mxCell>
                <mxCell id="YHTE3Ox_aLQOzrF9MliQ-50" value="" style="ellipse;whiteSpace=wrap;html=1;aspect=fixed;" parent="1" vertex="1">
                    <mxGeometry x="450" y="160" width="40" height="40" as="geometry"/>
                </mxCell>
                <mxCell id="YHTE3Ox_aLQOzrF9MliQ-51" value="" style="ellipse;whiteSpace=wrap;html=1;aspect=fixed;" parent="1" vertex="1">
                    <mxGeometry x="390" y="160" width="40" height="40" as="geometry"/>
                </mxCell>
                <mxCell id="YHTE3Ox_aLQOzrF9MliQ-52" value="" style="ellipse;whiteSpace=wrap;html=1;aspect=fixed;" parent="1" vertex="1">
                    <mxGeometry x="510" y="160" width="40" height="40" as="geometry"/>
                </mxCell>
                <mxCell id="YHTE3Ox_aLQOzrF9MliQ-53" value="" style="ellipse;whiteSpace=wrap;html=1;aspect=fixed;" parent="1" vertex="1">
                    <mxGeometry x="570" y="160" width="40" height="40" as="geometry"/>
                </mxCell>
                <mxCell id="YHTE3Ox_aLQOzrF9MliQ-54" value="" style="rounded=0;whiteSpace=wrap;html=1;fillColor=none;" parent="1" vertex="1">
                    <mxGeometry x="380" y="210" width="240" height="60" as="geometry"/>
                </mxCell>
                <mxCell id="YHTE3Ox_aLQOzrF9MliQ-55" value="" style="ellipse;whiteSpace=wrap;html=1;aspect=fixed;" parent="1" vertex="1">
                    <mxGeometry x="450" y="220" width="40" height="40" as="geometry"/>
                </mxCell>
                <mxCell id="YHTE3Ox_aLQOzrF9MliQ-56" value="" style="ellipse;whiteSpace=wrap;html=1;aspect=fixed;" parent="1" vertex="1">
                    <mxGeometry x="390" y="220" width="40" height="40" as="geometry"/>
                </mxCell>
                <mxCell id="YHTE3Ox_aLQOzrF9MliQ-57" value="" style="ellipse;whiteSpace=wrap;html=1;aspect=fixed;" parent="1" vertex="1">
                    <mxGeometry x="510" y="220" width="40" height="40" as="geometry"/>
                </mxCell>
                <mxCell id="YHTE3Ox_aLQOzrF9MliQ-58" value="" style="ellipse;whiteSpace=wrap;html=1;aspect=fixed;" parent="1" vertex="1">
                    <mxGeometry x="570" y="220" width="40" height="40" as="geometry"/>
                </mxCell>
                <mxCell id="YHTE3Ox_aLQOzrF9MliQ-59" value="" style="rounded=0;whiteSpace=wrap;html=1;fillColor=none;" parent="1" vertex="1">
                    <mxGeometry x="380" y="270" width="240" height="60" as="geometry"/>
                </mxCell>
                <mxCell id="YHTE3Ox_aLQOzrF9MliQ-60" value="" style="ellipse;whiteSpace=wrap;html=1;aspect=fixed;" parent="1" vertex="1">
                    <mxGeometry x="450" y="280" width="40" height="40" as="geometry"/>
                </mxCell>
                <mxCell id="YHTE3Ox_aLQOzrF9MliQ-61" value="" style="ellipse;whiteSpace=wrap;html=1;aspect=fixed;" parent="1" vertex="1">
                    <mxGeometry x="390" y="280" width="40" height="40" as="geometry"/>
                </mxCell>
                <mxCell id="YHTE3Ox_aLQOzrF9MliQ-62" value="" style="ellipse;whiteSpace=wrap;html=1;aspect=fixed;" parent="1" vertex="1">
                    <mxGeometry x="510" y="280" width="40" height="40" as="geometry"/>
                </mxCell>
                <mxCell id="YHTE3Ox_aLQOzrF9MliQ-63" value="" style="ellipse;whiteSpace=wrap;html=1;aspect=fixed;" parent="1" vertex="1">
                    <mxGeometry x="570" y="280" width="40" height="40" as="geometry"/>
                </mxCell>
                <mxCell id="YHTE3Ox_aLQOzrF9MliQ-64" value="" style="rounded=0;whiteSpace=wrap;html=1;fillColor=none;" parent="1" vertex="1">
                    <mxGeometry x="380" y="330" width="240" height="60" as="geometry"/>
                </mxCell>
                <mxCell id="YHTE3Ox_aLQOzrF9MliQ-65" value="" style="ellipse;whiteSpace=wrap;html=1;aspect=fixed;" parent="1" vertex="1">
                    <mxGeometry x="450" y="340" width="40" height="40" as="geometry"/>
                </mxCell>
                <mxCell id="YHTE3Ox_aLQOzrF9MliQ-66" value="" style="ellipse;whiteSpace=wrap;html=1;aspect=fixed;" parent="1" vertex="1">
                    <mxGeometry x="390" y="340" width="40" height="40" as="geometry"/>
                </mxCell>
                <mxCell id="YHTE3Ox_aLQOzrF9MliQ-67" value="" style="ellipse;whiteSpace=wrap;html=1;aspect=fixed;" parent="1" vertex="1">
                    <mxGeometry x="510" y="340" width="40" height="40" as="geometry"/>
                </mxCell>
                <mxCell id="YHTE3Ox_aLQOzrF9MliQ-68" value="" style="ellipse;whiteSpace=wrap;html=1;aspect=fixed;" parent="1" vertex="1">
                    <mxGeometry x="570" y="340" width="40" height="40" as="geometry"/>
                </mxCell>
                <mxCell id="YHTE3Ox_aLQOzrF9MliQ-69" value="" style="rounded=0;whiteSpace=wrap;html=1;fillColor=none;" parent="1" vertex="1">
                    <mxGeometry x="380" y="390" width="240" height="60" as="geometry"/>
                </mxCell>
                <mxCell id="YHTE3Ox_aLQOzrF9MliQ-70" value="" style="ellipse;whiteSpace=wrap;html=1;aspect=fixed;" parent="1" vertex="1">
                    <mxGeometry x="450" y="400" width="40" height="40" as="geometry"/>
                </mxCell>
                <mxCell id="YHTE3Ox_aLQOzrF9MliQ-71" value="" style="ellipse;whiteSpace=wrap;html=1;aspect=fixed;" parent="1" vertex="1">
                    <mxGeometry x="390" y="400" width="40" height="40" as="geometry"/>
                </mxCell>
                <mxCell id="YHTE3Ox_aLQOzrF9MliQ-72" value="" style="ellipse;whiteSpace=wrap;html=1;aspect=fixed;" parent="1" vertex="1">
                    <mxGeometry x="510" y="400" width="40" height="40" as="geometry"/>
                </mxCell>
                <mxCell id="YHTE3Ox_aLQOzrF9MliQ-73" value="" style="ellipse;whiteSpace=wrap;html=1;aspect=fixed;" parent="1" vertex="1">
                    <mxGeometry x="570" y="400" width="40" height="40" as="geometry"/>
                </mxCell>
                <mxCell id="YHTE3Ox_aLQOzrF9MliQ-74" value="" style="rounded=0;whiteSpace=wrap;html=1;fillColor=none;" parent="1" vertex="1">
                    <mxGeometry x="380" y="450" width="240" height="60" as="geometry"/>
                </mxCell>
                <mxCell id="YHTE3Ox_aLQOzrF9MliQ-75" value="" style="ellipse;whiteSpace=wrap;html=1;aspect=fixed;" parent="1" vertex="1">
                    <mxGeometry x="450" y="460" width="40" height="40" as="geometry"/>
                </mxCell>
                <mxCell id="YHTE3Ox_aLQOzrF9MliQ-76" value="" style="ellipse;whiteSpace=wrap;html=1;aspect=fixed;" parent="1" vertex="1">
                    <mxGeometry x="390" y="460" width="40" height="40" as="geometry"/>
                </mxCell>
                <mxCell id="YHTE3Ox_aLQOzrF9MliQ-77" value="" style="ellipse;whiteSpace=wrap;html=1;aspect=fixed;" parent="1" vertex="1">
                    <mxGeometry x="510" y="460" width="40" height="40" as="geometry"/>
                </mxCell>
                <mxCell id="YHTE3Ox_aLQOzrF9MliQ-78" value="" style="ellipse;whiteSpace=wrap;html=1;aspect=fixed;" parent="1" vertex="1">
                    <mxGeometry x="570" y="460" width="40" height="40" as="geometry"/>
                </mxCell>
                <mxCell id="YHTE3Ox_aLQOzrF9MliQ-79" value="" style="rounded=0;whiteSpace=wrap;html=1;fillColor=none;" parent="1" vertex="1">
                    <mxGeometry x="380" y="510" width="240" height="60" as="geometry"/>
                </mxCell>
                <mxCell id="YHTE3Ox_aLQOzrF9MliQ-80" value="" style="ellipse;whiteSpace=wrap;html=1;aspect=fixed;" parent="1" vertex="1">
                    <mxGeometry x="450" y="520" width="40" height="40" as="geometry"/>
                </mxCell>
                <mxCell id="YHTE3Ox_aLQOzrF9MliQ-81" value="" style="ellipse;whiteSpace=wrap;html=1;aspect=fixed;" parent="1" vertex="1">
                    <mxGeometry x="390" y="520" width="40" height="40" as="geometry"/>
                </mxCell>
                <mxCell id="YHTE3Ox_aLQOzrF9MliQ-82" value="" style="ellipse;whiteSpace=wrap;html=1;aspect=fixed;" parent="1" vertex="1">
                    <mxGeometry x="510" y="520" width="40" height="40" as="geometry"/>
                </mxCell>
                <mxCell id="YHTE3Ox_aLQOzrF9MliQ-83" value="" style="ellipse;whiteSpace=wrap;html=1;aspect=fixed;" parent="1" vertex="1">
                    <mxGeometry x="570" y="520" width="40" height="40" as="geometry"/>
                </mxCell>
                <mxCell id="YHTE3Ox_aLQOzrF9MliQ-84" value="" style="rounded=0;whiteSpace=wrap;html=1;fillColor=none;" parent="1" vertex="1">
                    <mxGeometry x="620" y="30" width="60" height="60" as="geometry"/>
                </mxCell>
                <mxCell id="YHTE3Ox_aLQOzrF9MliQ-85" value="" style="ellipse;whiteSpace=wrap;html=1;aspect=fixed;fillColor=#a20025;strokeColor=#6F0000;fontColor=#ffffff;" parent="1" vertex="1">
                    <mxGeometry x="630" y="40" width="20" height="20" as="geometry"/>
                </mxCell>
                <mxCell id="YHTE3Ox_aLQOzrF9MliQ-86" value="" style="ellipse;whiteSpace=wrap;html=1;aspect=fixed;fillColor=#a20025;strokeColor=#6F0000;fontColor=#ffffff;" parent="1" vertex="1">
                    <mxGeometry x="650" y="40" width="20" height="20" as="geometry"/>
                </mxCell>
                <mxCell id="YHTE3Ox_aLQOzrF9MliQ-87" value="" style="ellipse;whiteSpace=wrap;html=1;aspect=fixed;fillColor=#000000;" parent="1" vertex="1">
                    <mxGeometry x="650" y="60" width="20" height="20" as="geometry"/>
                </mxCell>
                <mxCell id="YHTE3Ox_aLQOzrF9MliQ-88" value="" style="ellipse;whiteSpace=wrap;html=1;aspect=fixed;fillColor=#FFFFFF;" parent="1" vertex="1">
                    <mxGeometry x="630" y="60" width="20" height="20" as="geometry"/>
                </mxCell>
                <mxCell id="YHTE3Ox_aLQOzrF9MliQ-95" value="" style="rounded=0;whiteSpace=wrap;html=1;fillColor=none;" parent="1" vertex="1">
                    <mxGeometry x="620" y="90" width="60" height="60" as="geometry"/>
                </mxCell>
                <mxCell id="YHTE3Ox_aLQOzrF9MliQ-96" value="" style="ellipse;whiteSpace=wrap;html=1;aspect=fixed;" parent="1" vertex="1">
                    <mxGeometry x="630" y="100" width="20" height="20" as="geometry"/>
                </mxCell>
                <mxCell id="YHTE3Ox_aLQOzrF9MliQ-97" value="" style="ellipse;whiteSpace=wrap;html=1;aspect=fixed;" parent="1" vertex="1">
                    <mxGeometry x="650" y="100" width="20" height="20" as="geometry"/>
                </mxCell>
                <mxCell id="YHTE3Ox_aLQOzrF9MliQ-98" value="" style="ellipse;whiteSpace=wrap;html=1;aspect=fixed;" parent="1" vertex="1">
                    <mxGeometry x="650" y="120" width="20" height="20" as="geometry"/>
                </mxCell>
                <mxCell id="YHTE3Ox_aLQOzrF9MliQ-99" value="" style="ellipse;whiteSpace=wrap;html=1;aspect=fixed;" parent="1" vertex="1">
                    <mxGeometry x="630" y="120" width="20" height="20" as="geometry"/>
                </mxCell>
                <mxCell id="YHTE3Ox_aLQOzrF9MliQ-100" value="" style="rounded=0;whiteSpace=wrap;html=1;fillColor=none;" parent="1" vertex="1">
                    <mxGeometry x="620" y="150" width="60" height="60" as="geometry"/>
                </mxCell>
                <mxCell id="YHTE3Ox_aLQOzrF9MliQ-101" value="" style="ellipse;whiteSpace=wrap;html=1;aspect=fixed;" parent="1" vertex="1">
                    <mxGeometry x="630" y="160" width="20" height="20" as="geometry"/>
                </mxCell>
                <mxCell id="YHTE3Ox_aLQOzrF9MliQ-102" value="" style="ellipse;whiteSpace=wrap;html=1;aspect=fixed;" parent="1" vertex="1">
                    <mxGeometry x="650" y="160" width="20" height="20" as="geometry"/>
                </mxCell>
                <mxCell id="YHTE3Ox_aLQOzrF9MliQ-103" value="" style="ellipse;whiteSpace=wrap;html=1;aspect=fixed;" parent="1" vertex="1">
                    <mxGeometry x="650" y="180" width="20" height="20" as="geometry"/>
                </mxCell>
                <mxCell id="YHTE3Ox_aLQOzrF9MliQ-104" value="" style="ellipse;whiteSpace=wrap;html=1;aspect=fixed;" parent="1" vertex="1">
                    <mxGeometry x="630" y="180" width="20" height="20" as="geometry"/>
                </mxCell>
                <mxCell id="YHTE3Ox_aLQOzrF9MliQ-105" value="" style="rounded=0;whiteSpace=wrap;html=1;fillColor=none;" parent="1" vertex="1">
                    <mxGeometry x="620" y="210" width="60" height="60" as="geometry"/>
                </mxCell>
                <mxCell id="YHTE3Ox_aLQOzrF9MliQ-106" value="" style="ellipse;whiteSpace=wrap;html=1;aspect=fixed;" parent="1" vertex="1">
                    <mxGeometry x="630" y="220" width="20" height="20" as="geometry"/>
                </mxCell>
                <mxCell id="YHTE3Ox_aLQOzrF9MliQ-107" value="" style="ellipse;whiteSpace=wrap;html=1;aspect=fixed;" parent="1" vertex="1">
                    <mxGeometry x="650" y="220" width="20" height="20" as="geometry"/>
                </mxCell>
                <mxCell id="YHTE3Ox_aLQOzrF9MliQ-108" value="" style="ellipse;whiteSpace=wrap;html=1;aspect=fixed;" parent="1" vertex="1">
                    <mxGeometry x="650" y="240" width="20" height="20" as="geometry"/>
                </mxCell>
                <mxCell id="YHTE3Ox_aLQOzrF9MliQ-109" value="" style="ellipse;whiteSpace=wrap;html=1;aspect=fixed;" parent="1" vertex="1">
                    <mxGeometry x="630" y="240" width="20" height="20" as="geometry"/>
                </mxCell>
                <mxCell id="YHTE3Ox_aLQOzrF9MliQ-110" value="" style="rounded=0;whiteSpace=wrap;html=1;fillColor=none;" parent="1" vertex="1">
                    <mxGeometry x="620" y="270" width="60" height="60" as="geometry"/>
                </mxCell>
                <mxCell id="YHTE3Ox_aLQOzrF9MliQ-111" value="" style="ellipse;whiteSpace=wrap;html=1;aspect=fixed;" parent="1" vertex="1">
                    <mxGeometry x="630" y="280" width="20" height="20" as="geometry"/>
                </mxCell>
                <mxCell id="YHTE3Ox_aLQOzrF9MliQ-112" value="" style="ellipse;whiteSpace=wrap;html=1;aspect=fixed;" parent="1" vertex="1">
                    <mxGeometry x="650" y="280" width="20" height="20" as="geometry"/>
                </mxCell>
                <mxCell id="YHTE3Ox_aLQOzrF9MliQ-113" value="" style="ellipse;whiteSpace=wrap;html=1;aspect=fixed;" parent="1" vertex="1">
                    <mxGeometry x="650" y="300" width="20" height="20" as="geometry"/>
                </mxCell>
                <mxCell id="YHTE3Ox_aLQOzrF9MliQ-114" value="" style="ellipse;whiteSpace=wrap;html=1;aspect=fixed;" parent="1" vertex="1">
                    <mxGeometry x="630" y="300" width="20" height="20" as="geometry"/>
                </mxCell>
                <mxCell id="YHTE3Ox_aLQOzrF9MliQ-115" value="" style="rounded=0;whiteSpace=wrap;html=1;fillColor=none;" parent="1" vertex="1">
                    <mxGeometry x="620" y="330" width="60" height="60" as="geometry"/>
                </mxCell>
                <mxCell id="YHTE3Ox_aLQOzrF9MliQ-116" value="" style="ellipse;whiteSpace=wrap;html=1;aspect=fixed;" parent="1" vertex="1">
                    <mxGeometry x="630" y="340" width="20" height="20" as="geometry"/>
                </mxCell>
                <mxCell id="YHTE3Ox_aLQOzrF9MliQ-117" value="" style="ellipse;whiteSpace=wrap;html=1;aspect=fixed;" parent="1" vertex="1">
                    <mxGeometry x="650" y="340" width="20" height="20" as="geometry"/>
                </mxCell>
                <mxCell id="YHTE3Ox_aLQOzrF9MliQ-118" value="" style="ellipse;whiteSpace=wrap;html=1;aspect=fixed;" parent="1" vertex="1">
                    <mxGeometry x="650" y="360" width="20" height="20" as="geometry"/>
                </mxCell>
                <mxCell id="YHTE3Ox_aLQOzrF9MliQ-119" value="" style="ellipse;whiteSpace=wrap;html=1;aspect=fixed;" parent="1" vertex="1">
                    <mxGeometry x="630" y="360" width="20" height="20" as="geometry"/>
                </mxCell>
                <mxCell id="YHTE3Ox_aLQOzrF9MliQ-120" value="" style="rounded=0;whiteSpace=wrap;html=1;fillColor=none;" parent="1" vertex="1">
                    <mxGeometry x="620" y="390" width="60" height="60" as="geometry"/>
                </mxCell>
                <mxCell id="YHTE3Ox_aLQOzrF9MliQ-121" value="" style="ellipse;whiteSpace=wrap;html=1;aspect=fixed;" parent="1" vertex="1">
                    <mxGeometry x="630" y="400" width="20" height="20" as="geometry"/>
                </mxCell>
                <mxCell id="YHTE3Ox_aLQOzrF9MliQ-122" value="" style="ellipse;whiteSpace=wrap;html=1;aspect=fixed;" parent="1" vertex="1">
                    <mxGeometry x="650" y="400" width="20" height="20" as="geometry"/>
                </mxCell>
                <mxCell id="YHTE3Ox_aLQOzrF9MliQ-123" value="" style="ellipse;whiteSpace=wrap;html=1;aspect=fixed;" parent="1" vertex="1">
                    <mxGeometry x="650" y="420" width="20" height="20" as="geometry"/>
                </mxCell>
                <mxCell id="YHTE3Ox_aLQOzrF9MliQ-124" value="" style="ellipse;whiteSpace=wrap;html=1;aspect=fixed;" parent="1" vertex="1">
                    <mxGeometry x="630" y="420" width="20" height="20" as="geometry"/>
                </mxCell>
                <mxCell id="YHTE3Ox_aLQOzrF9MliQ-125" value="" style="rounded=0;whiteSpace=wrap;html=1;fillColor=none;" parent="1" vertex="1">
                    <mxGeometry x="620" y="450" width="60" height="60" as="geometry"/>
                </mxCell>
                <mxCell id="YHTE3Ox_aLQOzrF9MliQ-126" value="" style="ellipse;whiteSpace=wrap;html=1;aspect=fixed;" parent="1" vertex="1">
                    <mxGeometry x="630" y="460" width="20" height="20" as="geometry"/>
                </mxCell>
                <mxCell id="YHTE3Ox_aLQOzrF9MliQ-127" value="" style="ellipse;whiteSpace=wrap;html=1;aspect=fixed;" parent="1" vertex="1">
                    <mxGeometry x="650" y="460" width="20" height="20" as="geometry"/>
                </mxCell>
                <mxCell id="YHTE3Ox_aLQOzrF9MliQ-128" value="" style="ellipse;whiteSpace=wrap;html=1;aspect=fixed;" parent="1" vertex="1">
                    <mxGeometry x="650" y="480" width="20" height="20" as="geometry"/>
                </mxCell>
                <mxCell id="YHTE3Ox_aLQOzrF9MliQ-129" value="" style="ellipse;whiteSpace=wrap;html=1;aspect=fixed;" parent="1" vertex="1">
                    <mxGeometry x="630" y="480" width="20" height="20" as="geometry"/>
                </mxCell>
                <mxCell id="YHTE3Ox_aLQOzrF9MliQ-130" value="" style="rounded=0;whiteSpace=wrap;html=1;fillColor=none;" parent="1" vertex="1">
                    <mxGeometry x="620" y="510" width="60" height="60" as="geometry"/>
                </mxCell>
                <mxCell id="YHTE3Ox_aLQOzrF9MliQ-131" value="" style="ellipse;whiteSpace=wrap;html=1;aspect=fixed;" parent="1" vertex="1">
                    <mxGeometry x="630" y="520" width="20" height="20" as="geometry"/>
                </mxCell>
                <mxCell id="YHTE3Ox_aLQOzrF9MliQ-132" value="" style="ellipse;whiteSpace=wrap;html=1;aspect=fixed;" parent="1" vertex="1">
                    <mxGeometry x="650" y="520" width="20" height="20" as="geometry"/>
                </mxCell>
                <mxCell id="YHTE3Ox_aLQOzrF9MliQ-133" value="" style="ellipse;whiteSpace=wrap;html=1;aspect=fixed;" parent="1" vertex="1">
                    <mxGeometry x="650" y="540" width="20" height="20" as="geometry"/>
                </mxCell>
                <mxCell id="YHTE3Ox_aLQOzrF9MliQ-134" value="" style="ellipse;whiteSpace=wrap;html=1;aspect=fixed;" parent="1" vertex="1">
                    <mxGeometry x="630" y="540" width="20" height="20" as="geometry"/>
                </mxCell>
            </root>
        </mxGraphModel>
    </diagram>
    <diagram id="oOgDFCd9BAtW5tUy0Eh5" name="Game_outline">
        <mxGraphModel dx="1118" dy="1890" grid="1" gridSize="10" guides="1" tooltips="1" connect="1" arrows="1" fold="1" page="1" pageScale="1" pageWidth="850" pageHeight="1100" math="0" shadow="0">
            <root>
                <mxCell id="QJ6z1ybJ-naDDT3zGv5Q-0"/>
                <mxCell id="QJ6z1ybJ-naDDT3zGv5Q-1" parent="QJ6z1ybJ-naDDT3zGv5Q-0"/>
                <mxCell id="QJ6z1ybJ-naDDT3zGv5Q-2" value="Maak een selectie van 4 pionnen uit 6 kleuren" style="rounded=0;whiteSpace=wrap;html=1;" parent="QJ6z1ybJ-naDDT3zGv5Q-1" vertex="1">
                    <mxGeometry x="365" y="140" width="120" height="60" as="geometry"/>
                </mxCell>
                <mxCell id="QJ6z1ybJ-naDDT3zGv5Q-3" value="Laat speler een input maken voor 4 pionnen" style="rounded=0;whiteSpace=wrap;html=1;" parent="QJ6z1ybJ-naDDT3zGv5Q-1" vertex="1">
                    <mxGeometry x="365" y="230" width="120" height="60" as="geometry"/>
                </mxCell>
                <mxCell id="QJ6z1ybJ-naDDT3zGv5Q-4" value="Hoeveel van de juiste kleur zijn er?" style="rounded=0;whiteSpace=wrap;html=1;" parent="QJ6z1ybJ-naDDT3zGv5Q-1" vertex="1">
                    <mxGeometry x="365" y="320" width="120" height="60" as="geometry"/>
                </mxCell>
                <mxCell id="QJ6z1ybJ-naDDT3zGv5Q-7" value="Hoeveel staan er op de juiste volgorde?" style="rounded=0;whiteSpace=wrap;html=1;" parent="QJ6z1ybJ-naDDT3zGv5Q-1" vertex="1">
                    <mxGeometry x="365" y="410" width="120" height="60" as="geometry"/>
                </mxCell>
                <mxCell id="QJ6z1ybJ-naDDT3zGv5Q-9" value="Geef score weer:&lt;br&gt;Kleur + volgorde = rood&lt;br&gt;Kleur = wit&lt;br&gt;Anders = zwart" style="rounded=0;whiteSpace=wrap;html=1;" parent="QJ6z1ybJ-naDDT3zGv5Q-1" vertex="1">
                    <mxGeometry x="358" y="507" width="135" height="73" as="geometry"/>
                </mxCell>
                <mxCell id="QJ6z1ybJ-naDDT3zGv5Q-13" value="" style="endArrow=classic;html=1;exitX=0.5;exitY=1;exitDx=0;exitDy=0;entryX=0.5;entryY=0;entryDx=0;entryDy=0;" parent="QJ6z1ybJ-naDDT3zGv5Q-1" source="QJ6z1ybJ-naDDT3zGv5Q-2" target="QJ6z1ybJ-naDDT3zGv5Q-3" edge="1">
                    <mxGeometry width="50" height="50" relative="1" as="geometry">
                        <mxPoint x="400" y="370" as="sourcePoint"/>
                        <mxPoint x="450" y="320" as="targetPoint"/>
                    </mxGeometry>
                </mxCell>
                <mxCell id="QJ6z1ybJ-naDDT3zGv5Q-16" value="Nieuwe ronde" style="rounded=0;whiteSpace=wrap;html=1;" parent="QJ6z1ybJ-naDDT3zGv5Q-1" vertex="1">
                    <mxGeometry x="365" y="40" width="120" height="60" as="geometry"/>
                </mxCell>
                <mxCell id="QJ6z1ybJ-naDDT3zGv5Q-17" value="Is alle volgorde en kleur correct?" style="rounded=0;whiteSpace=wrap;html=1;" parent="QJ6z1ybJ-naDDT3zGv5Q-1" vertex="1">
                    <mxGeometry x="365" y="620" width="120" height="60" as="geometry"/>
                </mxCell>
                <mxCell id="QJ6z1ybJ-naDDT3zGv5Q-18" value="Is het aantal rondes &amp;gt;0 ?" style="rounded=0;whiteSpace=wrap;html=1;" parent="QJ6z1ybJ-naDDT3zGv5Q-1" vertex="1">
                    <mxGeometry x="590" y="620" width="120" height="60" as="geometry"/>
                </mxCell>
                <mxCell id="QJ6z1ybJ-naDDT3zGv5Q-19" value="" style="endArrow=classic;html=1;entryX=0;entryY=0.5;entryDx=0;entryDy=0;exitX=1;exitY=0.5;exitDx=0;exitDy=0;" parent="QJ6z1ybJ-naDDT3zGv5Q-1" source="QJ6z1ybJ-naDDT3zGv5Q-17" target="QJ6z1ybJ-naDDT3zGv5Q-18" edge="1">
                    <mxGeometry relative="1" as="geometry">
                        <mxPoint x="370" y="390" as="sourcePoint"/>
                        <mxPoint x="470" y="390" as="targetPoint"/>
                        <Array as="points"/>
                    </mxGeometry>
                </mxCell>
                <mxCell id="QJ6z1ybJ-naDDT3zGv5Q-20" value="Nee" style="edgeLabel;resizable=0;html=1;align=center;verticalAlign=middle;" parent="QJ6z1ybJ-naDDT3zGv5Q-19" connectable="0" vertex="1">
                    <mxGeometry relative="1" as="geometry"/>
                </mxCell>
                <mxCell id="QJ6z1ybJ-naDDT3zGv5Q-21" value="Einde spel" style="rounded=0;whiteSpace=wrap;html=1;" parent="QJ6z1ybJ-naDDT3zGv5Q-1" vertex="1">
                    <mxGeometry x="365" y="770" width="120" height="60" as="geometry"/>
                </mxCell>
                <mxCell id="QJ6z1ybJ-naDDT3zGv5Q-24" value="" style="endArrow=classic;html=1;entryX=0.5;entryY=0;entryDx=0;entryDy=0;exitX=0.5;exitY=1;exitDx=0;exitDy=0;" parent="QJ6z1ybJ-naDDT3zGv5Q-1" source="QJ6z1ybJ-naDDT3zGv5Q-17" target="QJ6z1ybJ-naDDT3zGv5Q-21" edge="1">
                    <mxGeometry relative="1" as="geometry">
                        <mxPoint x="370" y="580" as="sourcePoint"/>
                        <mxPoint x="470" y="580" as="targetPoint"/>
                    </mxGeometry>
                </mxCell>
                <mxCell id="QJ6z1ybJ-naDDT3zGv5Q-25" value="Ja" style="edgeLabel;resizable=0;html=1;align=center;verticalAlign=middle;" parent="QJ6z1ybJ-naDDT3zGv5Q-24" connectable="0" vertex="1">
                    <mxGeometry relative="1" as="geometry"/>
                </mxCell>
                <mxCell id="QJ6z1ybJ-naDDT3zGv5Q-26" value="" style="endArrow=classic;html=1;entryX=1;entryY=0.5;entryDx=0;entryDy=0;exitX=0.5;exitY=1;exitDx=0;exitDy=0;" parent="QJ6z1ybJ-naDDT3zGv5Q-1" source="QJ6z1ybJ-naDDT3zGv5Q-18" target="QJ6z1ybJ-naDDT3zGv5Q-21" edge="1">
                    <mxGeometry relative="1" as="geometry">
                        <mxPoint x="370" y="580" as="sourcePoint"/>
                        <mxPoint x="470" y="580" as="targetPoint"/>
                        <Array as="points">
                            <mxPoint x="650" y="800"/>
                        </Array>
                    </mxGeometry>
                </mxCell>
                <mxCell id="QJ6z1ybJ-naDDT3zGv5Q-27" value="Nee" style="edgeLabel;resizable=0;html=1;align=center;verticalAlign=middle;" parent="QJ6z1ybJ-naDDT3zGv5Q-26" connectable="0" vertex="1">
                    <mxGeometry relative="1" as="geometry"/>
                </mxCell>
                <mxCell id="QJ6z1ybJ-naDDT3zGv5Q-28" value="" style="endArrow=classic;html=1;entryX=0.5;entryY=0;entryDx=0;entryDy=0;exitX=0.5;exitY=1;exitDx=0;exitDy=0;" parent="QJ6z1ybJ-naDDT3zGv5Q-1" source="QJ6z1ybJ-naDDT3zGv5Q-9" target="QJ6z1ybJ-naDDT3zGv5Q-17" edge="1">
                    <mxGeometry width="50" height="50" relative="1" as="geometry">
                        <mxPoint x="400" y="610" as="sourcePoint"/>
                        <mxPoint x="450" y="560" as="targetPoint"/>
                    </mxGeometry>
                </mxCell>
                <mxCell id="4MYDUryCR3BN2GeStdCC-0" value="Zet rondenteller op 12" style="rounded=0;whiteSpace=wrap;html=1;" parent="QJ6z1ybJ-naDDT3zGv5Q-1" vertex="1">
                    <mxGeometry x="365" y="-60" width="120" height="60" as="geometry"/>
                </mxCell>
                <mxCell id="4MYDUryCR3BN2GeStdCC-2" value="" style="endArrow=classic;html=1;entryX=0.5;entryY=0;entryDx=0;entryDy=0;" parent="QJ6z1ybJ-naDDT3zGv5Q-1" source="QJ6z1ybJ-naDDT3zGv5Q-16" target="QJ6z1ybJ-naDDT3zGv5Q-2" edge="1">
                    <mxGeometry width="50" height="50" relative="1" as="geometry">
                        <mxPoint x="400" y="340" as="sourcePoint"/>
                        <mxPoint x="450" y="290" as="targetPoint"/>
                    </mxGeometry>
                </mxCell>
                <mxCell id="4MYDUryCR3BN2GeStdCC-3" value="" style="endArrow=classic;html=1;entryX=0.5;entryY=0;entryDx=0;entryDy=0;exitX=0.5;exitY=1;exitDx=0;exitDy=0;" parent="QJ6z1ybJ-naDDT3zGv5Q-1" source="4MYDUryCR3BN2GeStdCC-0" target="QJ6z1ybJ-naDDT3zGv5Q-16" edge="1">
                    <mxGeometry width="50" height="50" relative="1" as="geometry">
                        <mxPoint x="400" y="340" as="sourcePoint"/>
                        <mxPoint x="450" y="290" as="targetPoint"/>
                    </mxGeometry>
                </mxCell>
                <mxCell id="4MYDUryCR3BN2GeStdCC-4" value="Aantal rondes -1" style="rounded=0;whiteSpace=wrap;html=1;" parent="QJ6z1ybJ-naDDT3zGv5Q-1" vertex="1">
                    <mxGeometry x="590" y="340" width="120" height="60" as="geometry"/>
                </mxCell>
                <mxCell id="4MYDUryCR3BN2GeStdCC-5" value="" style="endArrow=classic;html=1;entryX=0.5;entryY=1;entryDx=0;entryDy=0;exitX=0.5;exitY=0;exitDx=0;exitDy=0;" parent="QJ6z1ybJ-naDDT3zGv5Q-1" source="QJ6z1ybJ-naDDT3zGv5Q-18" target="4MYDUryCR3BN2GeStdCC-4" edge="1">
                    <mxGeometry relative="1" as="geometry">
                        <mxPoint x="370" y="420" as="sourcePoint"/>
                        <mxPoint x="470" y="420" as="targetPoint"/>
                    </mxGeometry>
                </mxCell>
                <mxCell id="4MYDUryCR3BN2GeStdCC-6" value="Ja" style="edgeLabel;resizable=0;html=1;align=center;verticalAlign=middle;" parent="4MYDUryCR3BN2GeStdCC-5" connectable="0" vertex="1">
                    <mxGeometry relative="1" as="geometry"/>
                </mxCell>
                <mxCell id="4MYDUryCR3BN2GeStdCC-7" value="" style="edgeStyle=segmentEdgeStyle;endArrow=classic;html=1;entryX=1;entryY=0.5;entryDx=0;entryDy=0;exitX=0.5;exitY=0;exitDx=0;exitDy=0;" parent="QJ6z1ybJ-naDDT3zGv5Q-1" source="4MYDUryCR3BN2GeStdCC-4" target="QJ6z1ybJ-naDDT3zGv5Q-16" edge="1">
                    <mxGeometry width="50" height="50" relative="1" as="geometry">
                        <mxPoint x="400" y="350" as="sourcePoint"/>
                        <mxPoint x="450" y="300" as="targetPoint"/>
                        <Array as="points">
                            <mxPoint x="650" y="70"/>
                        </Array>
                    </mxGeometry>
                </mxCell>
                <mxCell id="vR6HqwamB_RyyqVC_qNo-0" value="" style="endArrow=classic;html=1;entryX=0.5;entryY=0;entryDx=0;entryDy=0;exitX=0.5;exitY=1;exitDx=0;exitDy=0;" parent="QJ6z1ybJ-naDDT3zGv5Q-1" source="QJ6z1ybJ-naDDT3zGv5Q-4" target="QJ6z1ybJ-naDDT3zGv5Q-7" edge="1">
                    <mxGeometry width="50" height="50" relative="1" as="geometry">
                        <mxPoint x="400" y="400" as="sourcePoint"/>
                        <mxPoint x="450" y="350" as="targetPoint"/>
                    </mxGeometry>
                </mxCell>
                <mxCell id="vR6HqwamB_RyyqVC_qNo-1" value="" style="endArrow=classic;html=1;entryX=0.5;entryY=0;entryDx=0;entryDy=0;exitX=0.5;exitY=1;exitDx=0;exitDy=0;" parent="QJ6z1ybJ-naDDT3zGv5Q-1" source="QJ6z1ybJ-naDDT3zGv5Q-3" target="QJ6z1ybJ-naDDT3zGv5Q-4" edge="1">
                    <mxGeometry width="50" height="50" relative="1" as="geometry">
                        <mxPoint x="400" y="400" as="sourcePoint"/>
                        <mxPoint x="450" y="350" as="targetPoint"/>
                    </mxGeometry>
                </mxCell>
                <mxCell id="vR6HqwamB_RyyqVC_qNo-2" value="" style="endArrow=classic;html=1;entryX=0.5;entryY=0;entryDx=0;entryDy=0;exitX=0.5;exitY=1;exitDx=0;exitDy=0;" parent="QJ6z1ybJ-naDDT3zGv5Q-1" source="QJ6z1ybJ-naDDT3zGv5Q-7" target="QJ6z1ybJ-naDDT3zGv5Q-9" edge="1">
                    <mxGeometry width="50" height="50" relative="1" as="geometry">
                        <mxPoint x="400" y="570" as="sourcePoint"/>
                        <mxPoint x="450" y="520" as="targetPoint"/>
                    </mxGeometry>
                </mxCell>
            </root>
        </mxGraphModel>
    </diagram>
    <diagram id="EwgEeAnPqvPPqerUG9CR" name="amountCompare_logic">
        <mxGraphModel dx="1118" dy="790" grid="1" gridSize="10" guides="1" tooltips="1" connect="1" arrows="1" fold="1" page="1" pageScale="1" pageWidth="850" pageHeight="1100" math="0" shadow="0">
            <root>
                <mxCell id="jTshi1Bv9OZwQFRdUdzu-0"/>
                <mxCell id="jTshi1Bv9OZwQFRdUdzu-1" parent="jTshi1Bv9OZwQFRdUdzu-0"/>
                <mxCell id="jTshi1Bv9OZwQFRdUdzu-2" value="If RG [i] &amp;amp;&amp;amp; UI [i] &amp;gt;0" style="rounded=0;whiteSpace=wrap;html=1;" parent="jTshi1Bv9OZwQFRdUdzu-1" vertex="1">
                    <mxGeometry x="360" y="370" width="120" height="60" as="geometry"/>
                </mxCell>
                <mxCell id="jTshi1Bv9OZwQFRdUdzu-3" value="RG = Randomly Generated" style="text;html=1;strokeColor=none;fillColor=none;align=center;verticalAlign=middle;whiteSpace=wrap;rounded=0;" parent="jTshi1Bv9OZwQFRdUdzu-1" vertex="1">
                    <mxGeometry x="216" y="190" width="160" height="20" as="geometry"/>
                </mxCell>
                <mxCell id="jTshi1Bv9OZwQFRdUdzu-4" value="UI = User Input" style="text;html=1;strokeColor=none;fillColor=none;align=center;verticalAlign=middle;whiteSpace=wrap;rounded=0;" parent="jTshi1Bv9OZwQFRdUdzu-1" vertex="1">
                    <mxGeometry x="220" y="230" width="90" height="20" as="geometry"/>
                </mxCell>
                <mxCell id="jTshi1Bv9OZwQFRdUdzu-5" value="RG [i] == UI [i]" style="rounded=0;whiteSpace=wrap;html=1;" parent="jTshi1Bv9OZwQFRdUdzu-1" vertex="1">
                    <mxGeometry x="240" y="480" width="120" height="60" as="geometry"/>
                </mxCell>
                <mxCell id="jTshi1Bv9OZwQFRdUdzu-6" value="End" style="rounded=0;whiteSpace=wrap;html=1;" parent="jTshi1Bv9OZwQFRdUdzu-1" vertex="1">
                    <mxGeometry x="480" y="480" width="120" height="60" as="geometry"/>
                </mxCell>
                <mxCell id="jTshi1Bv9OZwQFRdUdzu-9" value="" style="endArrow=classic;html=1;entryX=0.5;entryY=0;entryDx=0;entryDy=0;exitX=-0.033;exitY=0.617;exitDx=0;exitDy=0;exitPerimeter=0;" parent="jTshi1Bv9OZwQFRdUdzu-1" source="jTshi1Bv9OZwQFRdUdzu-2" target="jTshi1Bv9OZwQFRdUdzu-5" edge="1">
                    <mxGeometry relative="1" as="geometry">
                        <mxPoint x="370" y="390" as="sourcePoint"/>
                        <mxPoint x="470" y="390" as="targetPoint"/>
                        <Array as="points">
                            <mxPoint x="300" y="407"/>
                        </Array>
                    </mxGeometry>
                </mxCell>
                <mxCell id="jTshi1Bv9OZwQFRdUdzu-10" value="Yes" style="edgeLabel;resizable=0;html=1;align=center;verticalAlign=middle;" parent="jTshi1Bv9OZwQFRdUdzu-9" connectable="0" vertex="1">
                    <mxGeometry relative="1" as="geometry"/>
                </mxCell>
                <mxCell id="jTshi1Bv9OZwQFRdUdzu-11" value="" style="endArrow=classic;html=1;entryX=0.5;entryY=0;entryDx=0;entryDy=0;exitX=1;exitY=0.5;exitDx=0;exitDy=0;" parent="jTshi1Bv9OZwQFRdUdzu-1" source="jTshi1Bv9OZwQFRdUdzu-2" target="jTshi1Bv9OZwQFRdUdzu-6" edge="1">
                    <mxGeometry relative="1" as="geometry">
                        <mxPoint x="380" y="390" as="sourcePoint"/>
                        <mxPoint x="480" y="390" as="targetPoint"/>
                        <Array as="points">
                            <mxPoint x="540" y="400"/>
                        </Array>
                    </mxGeometry>
                </mxCell>
                <mxCell id="jTshi1Bv9OZwQFRdUdzu-12" value="No" style="edgeLabel;resizable=0;html=1;align=center;verticalAlign=middle;" parent="jTshi1Bv9OZwQFRdUdzu-11" connectable="0" vertex="1">
                    <mxGeometry relative="1" as="geometry"/>
                </mxCell>
                <mxCell id="jTshi1Bv9OZwQFRdUdzu-13" value="" style="endArrow=classic;html=1;entryX=0.5;entryY=0;entryDx=0;entryDy=0;exitX=0.5;exitY=1;exitDx=0;exitDy=0;" parent="jTshi1Bv9OZwQFRdUdzu-1" source="jTshi1Bv9OZwQFRdUdzu-14" target="jTshi1Bv9OZwQFRdUdzu-2" edge="1">
                    <mxGeometry width="50" height="50" relative="1" as="geometry">
                        <mxPoint x="420" y="300" as="sourcePoint"/>
                        <mxPoint x="450" y="370" as="targetPoint"/>
                    </mxGeometry>
                </mxCell>
                <mxCell id="jTshi1Bv9OZwQFRdUdzu-14" value="Input: 2 values from 2 arrays" style="rounded=0;whiteSpace=wrap;html=1;" parent="jTshi1Bv9OZwQFRdUdzu-1" vertex="1">
                    <mxGeometry x="360" y="260" width="120" height="60" as="geometry"/>
                </mxCell>
                <mxCell id="jTshi1Bv9OZwQFRdUdzu-15" value="" style="endArrow=classic;html=1;exitX=1;exitY=0.5;exitDx=0;exitDy=0;entryX=0.5;entryY=0;entryDx=0;entryDy=0;" parent="jTshi1Bv9OZwQFRdUdzu-1" source="jTshi1Bv9OZwQFRdUdzu-5" target="jTshi1Bv9OZwQFRdUdzu-17" edge="1">
                    <mxGeometry relative="1" as="geometry">
                        <mxPoint x="380" y="520" as="sourcePoint"/>
                        <mxPoint x="450" y="600" as="targetPoint"/>
                        <Array as="points">
                            <mxPoint x="420" y="510"/>
                        </Array>
                    </mxGeometry>
                </mxCell>
                <mxCell id="jTshi1Bv9OZwQFRdUdzu-16" value="No" style="edgeLabel;resizable=0;html=1;align=center;verticalAlign=middle;" parent="jTshi1Bv9OZwQFRdUdzu-15" connectable="0" vertex="1">
                    <mxGeometry relative="1" as="geometry"/>
                </mxCell>
                <mxCell id="jTshi1Bv9OZwQFRdUdzu-17" value="Add min(RG [i], UI [i]) to points" style="rounded=0;whiteSpace=wrap;html=1;" parent="jTshi1Bv9OZwQFRdUdzu-1" vertex="1">
                    <mxGeometry x="360" y="620" width="120" height="60" as="geometry"/>
                </mxCell>
                <mxCell id="jTshi1Bv9OZwQFRdUdzu-18" value="Add RG [i] to points" style="rounded=0;whiteSpace=wrap;html=1;" parent="jTshi1Bv9OZwQFRdUdzu-1" vertex="1">
                    <mxGeometry x="126" y="620" width="120" height="60" as="geometry"/>
                </mxCell>
                <mxCell id="jTshi1Bv9OZwQFRdUdzu-19" value="" style="endArrow=classic;html=1;entryX=0.5;entryY=0;entryDx=0;entryDy=0;exitX=0;exitY=0.5;exitDx=0;exitDy=0;" parent="jTshi1Bv9OZwQFRdUdzu-1" source="jTshi1Bv9OZwQFRdUdzu-5" target="jTshi1Bv9OZwQFRdUdzu-18" edge="1">
                    <mxGeometry relative="1" as="geometry">
                        <mxPoint x="380" y="520" as="sourcePoint"/>
                        <mxPoint x="480" y="520" as="targetPoint"/>
                        <Array as="points">
                            <mxPoint x="186" y="510"/>
                        </Array>
                    </mxGeometry>
                </mxCell>
                <mxCell id="jTshi1Bv9OZwQFRdUdzu-20" value="Yes" style="edgeLabel;resizable=0;html=1;align=center;verticalAlign=middle;" parent="jTshi1Bv9OZwQFRdUdzu-19" connectable="0" vertex="1">
                    <mxGeometry relative="1" as="geometry"/>
                </mxCell>
            </root>
        </mxGraphModel>
    </diagram>
</mxfile>